<svg width="19" height="18" viewBox="0 0 19 18" fill="none" xmlns="http://www.w3.org/2000/svg">
<path d="M15.875 7.5C15.875 11.2448 11.7208 15.1448 10.3258 16.3493C10.0588 16.55 9.69122 16.55 9.42425 16.3493C8.02925 15.1448 3.875 11.2448 3.875 7.5C3.875 4.18851 6.56351 1.5 9.875 1.5C13.1865 1.5 15.875 4.18851 15.875 7.5" stroke="#333333" stroke-width="1.5" stroke-linecap="round" stroke-linejoin="round"/>
<path d="M7.625 7.5C7.625 8.74181 8.63319 9.75 9.875 9.75C11.1168 9.75 12.125 8.74181 12.125 7.5C12.125 6.25819 11.1168 5.25 9.875 5.25C8.63319 5.25 7.625 6.25819 7.625 7.5" stroke="#333333" stroke-width="1.5" stroke-linecap="round" stroke-linejoin="round"/>
</svg>
